<svg xmlns="http://www.w3.org/2000/svg" data-name="Layer 1" viewBox="0 0 64 64"><circle cx="38" cy="26" r="23" fill="#7cb2f8"/><polygon fill="#65788f" points="14 37 17 50 34 50 37 37 14 37"/><circle cx="22" cy="59" r="2" fill="#4f5d75"/><circle cx="31" cy="59" r="2" fill="#4f5d75"/><rect width="5" height="2" x="8" y="44"/><rect width="9" height="2" x="2" y="48"/><rect width="7" height="2" x="7" y="52"/><rect width="2" height="2" x="4" y="44"/><path d="M37 49H35.257l2.718-11.775A1 1 0 0 0 37 36H14.8l-1.2-5.225A1 1 0 0 0 12.615 30H7v2h4.82l4.2 18.225A1 1 0 0 0 17 51H35l-1.5 2H17v2H34a1 1 0 0 0 .8-.4l3-4A1 1 0 0 0 37 49zm-3.8 0H17.8L15.257 38H35.743zM22 56a3 3 0 1 0 3 3A3 3 0 0 0 22 56zm0 4a1 1 0 1 1 1-1A1 1 0 0 1 22 60zM31 56a3 3 0 1 0 3 3A3 3 0 0 0 31 56zm0 4a1 1 0 1 1 1-1A1 1 0 0 1 31 60z"/><path d="M38,2A24.028,24.028,0,0,0,14,26c0,.7.03,1.4.09,2.086l1.992-.172c-.026-.3-.025-.609-.039-.914h8.98a42.8,42.8,0,0,0,.746,7.19l1.963-.38A40.824,40.824,0,0,1,27.023,27H37v7h2V27h9.985a40.612,40.612,0,0,1-.912,7.733,65.155,65.155,0,0,0-7.031-.671l-.084,2a63.066,63.066,0,0,1,6.623.62A24.762,24.762,0,0,1,44.667,43.4a55.394,55.394,0,0,0-5.65-.387l-.034,2a53.177,53.177,0,0,1,6.05.432c.832.116,1.63.251,2.4.4a21.608,21.608,0,0,1-7.519,2.076l.172,1.992A24,24,0,0,0,38,2ZM25.028,25h-9A21.842,21.842,0,0,1,18.98,14.965a37.159,37.159,0,0,0,6.978,1.973A42.144,42.144,0,0,0,25.028,25Zm1.4-10.009a36.2,36.2,0,0,1-6.337-1.74A22.2,22.2,0,0,1,25.945,7.61q1.515.4,3.226.693A28.275,28.275,0,0,0,26.424,14.991ZM37,25H27.028a40.136,40.136,0,0,1,.9-7.736A66.61,66.61,0,0,0,37,17.981Zm0-9.019a64.7,64.7,0,0,1-8.592-.669,24.952,24.952,0,0,1,2.92-6.7A55.929,55.929,0,0,0,37,8.985ZM37.86,7c-1.138,0-2.259-.037-3.356-.1l-.228-.015c-1.133-.074-2.243-.178-3.315-.319h0q-1.269-.177-2.44-.409a21.971,21.971,0,0,1,18.958,0c-.782.154-1.595.292-2.44.409A54.958,54.958,0,0,1,37.86,7Zm9.732,8.316A64.7,64.7,0,0,1,39,15.981v-7a55.693,55.693,0,0,0,5.672-.373A24.973,24.973,0,0,1,47.592,15.312ZM39,25V17.981a66.445,66.445,0,0,0,9.067-.718A40.077,40.077,0,0,1,48.972,25ZM50.008,44.378c-1-.26-2.064-.49-3.192-.683a27.655,27.655,0,0,0,2.757-6.684,36.3,36.3,0,0,1,6.293,1.72A22.351,22.351,0,0,1,50.008,44.378Zm6.969-7.361a37.359,37.359,0,0,0-6.934-1.953A42.573,42.573,0,0,0,50.97,27h8.982A21.8,21.8,0,0,1,56.977,37.017Zm3-12.017h-9a42.153,42.153,0,0,0-.93-8.062,37.181,37.181,0,0,0,6.978-1.973A21.842,21.842,0,0,1,59.975,25Zm-10.4-10.01A28.284,28.284,0,0,0,46.829,8.3c1.14-.2,2.216-.429,3.226-.693a22.2,22.2,0,0,1,5.858,5.641A36.121,36.121,0,0,1,49.576,14.99Z"/></svg>